#N canvas 195 44 736 599 12;
#X obj 87 123 dac~;
#N canvas 0 0 450 300 reverb-kris 0;
#X obj 267 129 rev2~ 100 90 3000 20;
#X obj 67 220 *~;
#X msg 103 187 0;
#X msg 86 160 1;
#X obj 127 230 *~;
#X obj 233 13 r reverb;
#X obj 196 48 moses 0.5;
#X msg 154 178 0;
#X msg 167 203 1;
#X obj 196 242 *~;
#X msg 233 212 0;
#X msg 248 235 1;
#X obj 55 19 inlet~;
#X obj 86 270 outlet~;
#X obj 175 269 outlet~;
#X floatatom 270 80 5 0 0 0 - level -;
#X floatatom 300 99 5 0 0 0 - liveness -;
#X floatatom 327 76 5 0 0 0 - crossover_freq -;
#X floatatom 377 102 5 0 0 0 - damping -;
#X connect 0 0 4 0;
#X connect 0 1 9 0;
#X connect 1 0 13 0;
#X connect 1 0 14 0;
#X connect 2 0 1 1;
#X connect 3 0 1 1;
#X connect 4 0 13 0;
#X connect 5 0 6 0;
#X connect 6 0 3 0;
#X connect 6 0 7 0;
#X connect 6 0 10 0;
#X connect 6 1 2 0;
#X connect 6 1 8 0;
#X connect 6 1 11 0;
#X connect 7 0 4 1;
#X connect 8 0 4 1;
#X connect 9 0 14 0;
#X connect 10 0 9 1;
#X connect 11 0 9 1;
#X connect 12 0 1 0;
#X connect 12 0 0 0;
#X connect 15 0 0 1;
#X connect 16 0 0 2;
#X connect 17 0 0 3;
#X connect 18 0 0 4;
#X restore 54 65 pd reverb-kris;
#N canvas 0 0 691 550 synth-kris~ 0;
#X obj 187 22 r minikey;
#X obj 161 67 unpack f f f;
#X obj 109 20 notein;
#X obj 161 138 pack f f;
#X obj 170 209 pack f f f;
#X obj 195 450 *~;
#X floatatom 48 392 5 0 127 0 - - -;
#X obj 52 363 ctlin 7;
#X obj 71 431 / 127;
#X obj 21 31 bendin;
#X floatatom 24 66 5 0 0 0 - - -;
#X obj 24 88 - 8192;
#X floatatom 38 138 5 0 0 0 - - -;
#X obj 28 169 / 682.6;
#N canvas 2 4 796 665 voice 0;
#X obj 272 37 mtof;
#X floatatom 206 -36 5 0 0 3 note - -;
#X floatatom 315 -33 5 0 0 3 velocity - -;
#X obj 249 -95 inlet;
#X obj 328 7 / 127;
#X obj 53 173 tabread~ wavetable;
#X obj 96 217 *~;
#X obj 112 118 phasor~;
#X obj 96 358 /~ 10;
#X obj 234 -67 unpack f f;
#X obj 424 309 *~;
#X obj 400 362 /~ 10;
#X obj 442 175 osc~;
#X floatatom 449 150 5 0 0 0 - - -;
#X obj 410 208 *~;
#X floatatom 479 64 5 0 0 0 index fm_index -;
#X obj 388 241 +~;
#X obj 388 274 osc~;
#X obj 405 175 *~;
#X floatatom 521 35 5 0 0 0 ratio fm_ratio -;
#X obj 519 100 t b f;
#X obj 229 245 vsl 15 128 0 1 0 0 empty empty empty 0 -9 0 10 -262144
-1 -1 5410 1;
#X obj 308 245 vsl 15 128 0 1 0 0 empty empty empty 0 -9 0 10 -262144
-1 -1 7290 1;
#X obj 255 242 t b f;
#X obj 269 297 -;
#X obj 122 389 *~;
#X obj 398 394 *~;
#X msg 248 270 1;
#X obj 271 519 outlet~;
#X obj 228 213 r crossfade;
#X text -40 82 wave table oscillation;
#X text 477 8 frequency modulation;
#X text 479 175 m;
#X text 425 274 c;
#X obj 160 -95 inlet;
#X floatatom 154 -19 5 0 0 3 pitchbend - -;
#X obj 263 -15 t b f;
#X obj 263 151 adsr-erbe~;
#X floatatom 216 120 5 0 0 2 attack attack -;
#X floatatom 266 118 5 0 0 2 decay decay -;
#X floatatom 312 117 5 0 0 2 sustain sustain -;
#X floatatom 361 127 5 0 0 2 release release -;
#X obj 238 180 *~ 0.01;
#X obj 127 247 *~;
#X obj 453 335 *~;
#N canvas 0 0 455 573 wah 0;
#X floatatom 216 89 5 0 0 0 - - -;
#X obj 167 156 mtof;
#X obj 156 191 bp~ 1000 10;
#X obj 196 50 env~;
#X obj 244 122 +;
#X floatatom 289 90 5 0 0 2 center_freq center_freq -;
#X floatatom 271 171 5 0 0 2 q q -;
#X floatatom 316 218 5 0 0 2 amplitude amplitude -;
#X obj 204 371 *~;
#X obj 73 14 inlet~;
#X obj 133 14 inlet~;
#X obj 190 13 inlet~;
#X obj 66 491 outlet~;
#X obj 181 220 bp~ 1000 10;
#X obj 202 250 bp~ 1000 10;
#X obj 229 280 bp~ 1000 10;
#X obj 252 314 bp~ 1000 10;
#X obj 23 349 *~;
#X msg 70 330 0;
#X msg 54 303 1;
#X obj 188 471 *~;
#X msg 120 434 0;
#X msg 153 435 1;
#X obj 92 259 moses 0.5;
#X obj 91 230 r wah;
#X connect 0 0 4 0;
#X connect 1 0 2 1;
#X connect 1 0 13 1;
#X connect 1 0 14 1;
#X connect 1 0 15 1;
#X connect 1 0 16 1;
#X connect 2 0 13 0;
#X connect 2 0 8 0;
#X connect 3 0 0 0;
#X connect 4 0 1 0;
#X connect 5 0 4 1;
#X connect 6 0 2 2;
#X connect 6 0 13 2;
#X connect 6 0 14 2;
#X connect 6 0 15 2;
#X connect 6 0 16 2;
#X connect 7 0 8 1;
#X connect 8 0 20 0;
#X connect 9 0 2 0;
#X connect 9 0 17 0;
#X connect 10 0 2 0;
#X connect 10 0 17 0;
#X connect 11 0 3 0;
#X connect 13 0 14 0;
#X connect 13 0 8 0;
#X connect 14 0 15 0;
#X connect 14 0 8 0;
#X connect 15 0 16 0;
#X connect 15 0 8 0;
#X connect 16 0 8 0;
#X connect 17 0 12 0;
#X connect 18 0 17 1;
#X connect 19 0 17 1;
#X connect 20 0 12 0;
#X connect 21 0 20 1;
#X connect 22 0 20 1;
#X connect 23 0 19 0;
#X connect 23 0 21 0;
#X connect 23 1 18 0;
#X connect 23 1 22 0;
#X connect 24 0 23 0;
#X restore 273 446 pd wah;
#X obj 272 11 +;
#X obj 240 66 +~;
#X obj 454 125 *;
#N canvas 0 0 450 300 vibrato 0;
#X floatatom -23 48 5 0 0 0 rate rate -;
#X obj 66 121 *~;
#X floatatom 44 8 5 0 0 0 depth depth -;
#X obj 91 95 +;
#X text 22 -10 vibrato;
#X obj 95 -32 ctlin 1;
#X floatatom 237 48 5 0 0 0 - - -;
#X obj 91 167 outlet~;
#X obj 56 29 t b f;
#X obj 6 101 osc~;
#X msg 30 69 0;
#X connect 0 0 9 0;
#X connect 1 0 7 0;
#X connect 2 0 8 0;
#X connect 3 0 1 1;
#X connect 5 0 6 0;
#X connect 6 0 3 0;
#X connect 8 0 3 0;
#X connect 8 1 3 1;
#X connect 9 0 1 0;
#X connect 10 0 9 1;
#X restore 166 33 pd vibrato;
#X obj 82 150 *~ 100;
#X connect 0 0 16 0;
#X connect 0 0 47 1;
#X connect 0 0 48 0;
#X connect 1 0 36 0;
#X connect 2 0 4 0;
#X connect 2 0 37 0;
#X connect 3 0 9 0;
#X connect 4 0 43 1;
#X connect 4 0 44 1;
#X connect 5 0 6 0;
#X connect 6 0 43 0;
#X connect 7 0 50 0;
#X connect 8 0 25 1;
#X connect 9 0 1 0;
#X connect 9 1 2 0;
#X connect 10 0 44 0;
#X connect 11 0 26 1;
#X connect 12 0 14 1;
#X connect 13 0 12 0;
#X connect 13 0 18 1;
#X connect 14 0 16 1;
#X connect 15 0 18 0;
#X connect 16 0 17 0;
#X connect 17 0 10 0;
#X connect 18 0 14 0;
#X connect 19 0 20 0;
#X connect 20 0 48 0;
#X connect 20 1 48 1;
#X connect 21 0 25 0;
#X connect 22 0 26 0;
#X connect 23 0 27 0;
#X connect 23 1 24 1;
#X connect 24 0 21 0;
#X connect 25 0 45 0;
#X connect 26 0 45 1;
#X connect 27 0 24 0;
#X connect 29 0 23 0;
#X connect 29 0 22 0;
#X connect 34 0 35 0;
#X connect 35 0 46 0;
#X connect 36 0 46 0;
#X connect 36 1 46 1;
#X connect 37 0 42 0;
#X connect 38 0 37 1;
#X connect 39 0 37 2;
#X connect 40 0 37 3;
#X connect 41 0 37 4;
#X connect 42 0 6 1;
#X connect 42 0 10 1;
#X connect 42 0 45 2;
#X connect 43 0 8 0;
#X connect 44 0 11 0;
#X connect 45 0 28 0;
#X connect 46 0 0 0;
#X connect 47 0 7 0;
#X connect 47 0 16 0;
#X connect 48 0 13 0;
#X connect 49 0 47 0;
#X connect 50 0 5 0;
#X restore 72 304 pd voice;
#X obj 185 483 outlet~;
#N canvas 2 4 796 665 voice 0;
#X obj 272 37 mtof;
#X floatatom 206 -36 5 0 0 3 note - -;
#X floatatom 315 -33 5 0 0 3 velocity - -;
#X obj 249 -95 inlet;
#X obj 328 7 / 127;
#X obj 82 150 *~ 100;
#X obj 53 173 tabread~ wavetable;
#X obj 96 217 *~;
#X obj 112 118 phasor~;
#X obj 96 358 /~ 10;
#X obj 234 -67 unpack f f;
#X obj 424 309 *~;
#X obj 400 362 /~ 10;
#X obj 442 175 osc~;
#X floatatom 449 150 5 0 0 0 - - -;
#X obj 410 208 *~;
#X floatatom 479 64 5 0 0 0 index fm_index -;
#X obj 388 241 +~;
#X obj 388 274 osc~;
#X obj 405 175 *~;
#X floatatom 521 35 5 0 0 0 ratio fm_ratio -;
#X obj 519 100 t b f;
#X obj 229 245 vsl 15 128 0 1 0 0 empty empty empty 0 -9 0 10 -262144
-1 -1 5410 1;
#X obj 308 245 vsl 15 128 0 1 0 0 empty empty empty 0 -9 0 10 -262144
-1 -1 7290 1;
#X obj 255 242 t b f;
#X obj 269 297 -;
#X obj 122 389 *~;
#X obj 398 394 *~;
#X msg 248 270 1;
#X obj 271 519 outlet~;
#X obj 228 213 r crossfade;
#X text -40 82 wave table oscillation;
#X text 477 8 frequency modulation;
#X text 479 175 m;
#X text 425 274 c;
#X obj 160 -95 inlet;
#X floatatom 154 -19 5 0 0 3 pitchbend - -;
#X obj 263 -15 t b f;
#X obj 263 151 adsr-erbe~;
#X floatatom 216 120 5 0 0 2 attack attack -;
#X floatatom 266 118 5 0 0 2 decay decay -;
#X floatatom 312 117 5 0 0 2 sustain sustain -;
#X floatatom 361 127 5 0 0 2 release release -;
#X obj 238 180 *~ 0.01;
#X obj 127 247 *~;
#X obj 453 335 *~;
#N canvas 0 0 455 573 wah 0;
#X floatatom 216 89 5 0 0 0 - - -;
#X obj 167 156 mtof;
#X obj 156 191 bp~ 1000 10;
#X obj 196 50 env~;
#X obj 244 122 +;
#X floatatom 289 90 5 0 0 2 center_freq center_freq -;
#X floatatom 271 171 5 0 0 2 q q -;
#X floatatom 316 218 5 0 0 2 amplitude amplitude -;
#X obj 204 371 *~;
#X obj 73 14 inlet~;
#X obj 133 14 inlet~;
#X obj 190 13 inlet~;
#X obj 66 491 outlet~;
#X obj 181 220 bp~ 1000 10;
#X obj 202 250 bp~ 1000 10;
#X obj 229 280 bp~ 1000 10;
#X obj 252 314 bp~ 1000 10;
#X obj 23 349 *~;
#X msg 70 330 0;
#X msg 54 303 1;
#X obj 188 471 *~;
#X msg 120 434 0;
#X msg 153 435 1;
#X obj 92 259 moses 0.5;
#X obj 91 230 r wah;
#X connect 0 0 4 0;
#X connect 1 0 2 1;
#X connect 1 0 13 1;
#X connect 1 0 14 1;
#X connect 1 0 15 1;
#X connect 1 0 16 1;
#X connect 2 0 13 0;
#X connect 2 0 8 0;
#X connect 3 0 0 0;
#X connect 4 0 1 0;
#X connect 5 0 4 1;
#X connect 6 0 2 2;
#X connect 6 0 13 2;
#X connect 6 0 14 2;
#X connect 6 0 15 2;
#X connect 6 0 16 2;
#X connect 7 0 8 1;
#X connect 8 0 20 0;
#X connect 9 0 2 0;
#X connect 9 0 17 0;
#X connect 10 0 2 0;
#X connect 10 0 17 0;
#X connect 11 0 3 0;
#X connect 13 0 14 0;
#X connect 13 0 8 0;
#X connect 14 0 15 0;
#X connect 14 0 8 0;
#X connect 15 0 16 0;
#X connect 15 0 8 0;
#X connect 16 0 8 0;
#X connect 17 0 12 0;
#X connect 18 0 17 1;
#X connect 19 0 17 1;
#X connect 20 0 12 0;
#X connect 21 0 20 1;
#X connect 22 0 20 1;
#X connect 23 0 19 0;
#X connect 23 0 21 0;
#X connect 23 1 18 0;
#X connect 23 1 22 0;
#X connect 24 0 23 0;
#X restore 273 446 pd wah;
#X obj 272 11 +;
#X obj 240 66 +~;
#X obj 454 125 *;
#N canvas 0 0 450 300 vibrato 0;
#X floatatom -23 48 5 0 0 0 rate rate -;
#X obj 66 121 *~;
#X floatatom 44 8 5 0 0 0 depth depth -;
#X obj 91 95 +;
#X text 22 -10 vibrato;
#X obj 95 -32 ctlin 1;
#X floatatom 237 48 5 0 0 0 - - -;
#X obj 91 167 outlet~;
#X obj 56 29 t b f;
#X obj 6 101 osc~;
#X msg 30 69 0;
#X connect 0 0 9 0;
#X connect 1 0 7 0;
#X connect 2 0 8 0;
#X connect 3 0 1 1;
#X connect 5 0 6 0;
#X connect 6 0 3 0;
#X connect 8 0 3 0;
#X connect 8 1 3 1;
#X connect 9 0 1 0;
#X connect 10 0 9 1;
#X restore 166 33 pd vibrato;
#X connect 0 0 17 0;
#X connect 0 0 48 1;
#X connect 0 0 49 0;
#X connect 1 0 37 0;
#X connect 2 0 4 0;
#X connect 2 0 38 0;
#X connect 3 0 10 0;
#X connect 4 0 44 1;
#X connect 4 0 45 1;
#X connect 5 0 6 0;
#X connect 6 0 7 0;
#X connect 7 0 44 0;
#X connect 8 0 5 0;
#X connect 9 0 26 1;
#X connect 10 0 1 0;
#X connect 10 1 2 0;
#X connect 11 0 45 0;
#X connect 12 0 27 1;
#X connect 13 0 15 1;
#X connect 14 0 13 0;
#X connect 14 0 19 1;
#X connect 15 0 17 1;
#X connect 16 0 19 0;
#X connect 17 0 18 0;
#X connect 18 0 11 0;
#X connect 19 0 15 0;
#X connect 20 0 21 0;
#X connect 21 0 49 0;
#X connect 21 1 49 1;
#X connect 22 0 26 0;
#X connect 23 0 27 0;
#X connect 24 0 28 0;
#X connect 24 1 25 1;
#X connect 25 0 22 0;
#X connect 26 0 46 0;
#X connect 27 0 46 1;
#X connect 28 0 25 0;
#X connect 30 0 24 0;
#X connect 30 0 23 0;
#X connect 35 0 36 0;
#X connect 36 0 47 0;
#X connect 37 0 47 0;
#X connect 37 1 47 1;
#X connect 38 0 43 0;
#X connect 39 0 38 1;
#X connect 40 0 38 2;
#X connect 41 0 38 3;
#X connect 42 0 38 4;
#X connect 43 0 7 1;
#X connect 43 0 11 1;
#X connect 43 0 46 2;
#X connect 44 0 9 0;
#X connect 45 0 12 0;
#X connect 46 0 29 0;
#X connect 47 0 0 0;
#X connect 48 0 8 0;
#X connect 48 0 17 0;
#X connect 49 0 14 0;
#X connect 50 0 48 0;
#X restore 157 305 pd voice;
#N canvas 2 4 796 665 voice 0;
#X obj 272 37 mtof;
#X floatatom 206 -36 5 0 0 3 note - -;
#X floatatom 315 -33 5 0 0 3 velocity - -;
#X obj 249 -95 inlet;
#X obj 328 7 / 127;
#X obj 82 150 *~ 100;
#X obj 53 173 tabread~ wavetable;
#X obj 96 217 *~;
#X obj 112 118 phasor~;
#X obj 96 358 /~ 10;
#X obj 234 -67 unpack f f;
#X obj 424 309 *~;
#X obj 400 362 /~ 10;
#X obj 442 175 osc~;
#X floatatom 449 150 5 0 0 0 - - -;
#X obj 410 208 *~;
#X floatatom 479 64 5 0 0 0 index fm_index -;
#X obj 388 241 +~;
#X obj 388 274 osc~;
#X obj 405 175 *~;
#X floatatom 521 35 5 0 0 0 ratio fm_ratio -;
#X obj 519 100 t b f;
#X obj 229 245 vsl 15 128 0 1 0 0 empty empty empty 0 -9 0 10 -262144
-1 -1 5410 1;
#X obj 308 245 vsl 15 128 0 1 0 0 empty empty empty 0 -9 0 10 -262144
-1 -1 7290 1;
#X obj 255 242 t b f;
#X obj 269 297 -;
#X obj 122 389 *~;
#X obj 398 394 *~;
#X msg 248 270 1;
#X obj 271 519 outlet~;
#X obj 228 213 r crossfade;
#X text -40 82 wave table oscillation;
#X text 477 8 frequency modulation;
#X text 479 175 m;
#X text 425 274 c;
#X obj 160 -95 inlet;
#X floatatom 154 -19 5 0 0 3 pitchbend - -;
#X obj 263 -15 t b f;
#X obj 263 151 adsr-erbe~;
#X floatatom 216 120 5 0 0 2 attack attack -;
#X floatatom 266 118 5 0 0 2 decay decay -;
#X floatatom 312 117 5 0 0 2 sustain sustain -;
#X floatatom 361 127 5 0 0 2 release release -;
#X obj 238 180 *~ 0.01;
#X obj 127 247 *~;
#X obj 453 335 *~;
#N canvas 0 0 455 573 wah 0;
#X floatatom 216 89 5 0 0 0 - - -;
#X obj 167 156 mtof;
#X obj 156 191 bp~ 1000 10;
#X obj 196 50 env~;
#X obj 244 122 +;
#X floatatom 289 90 5 0 0 2 center_freq center_freq -;
#X floatatom 271 171 5 0 0 2 q q -;
#X floatatom 316 218 5 0 0 2 amplitude amplitude -;
#X obj 204 371 *~;
#X obj 73 14 inlet~;
#X obj 133 14 inlet~;
#X obj 190 13 inlet~;
#X obj 66 491 outlet~;
#X obj 181 220 bp~ 1000 10;
#X obj 202 250 bp~ 1000 10;
#X obj 229 280 bp~ 1000 10;
#X obj 252 314 bp~ 1000 10;
#X obj 23 349 *~;
#X msg 70 330 0;
#X msg 54 303 1;
#X obj 188 471 *~;
#X msg 120 434 0;
#X msg 153 435 1;
#X obj 92 259 moses 0.5;
#X obj 91 230 r wah;
#X connect 0 0 4 0;
#X connect 1 0 2 1;
#X connect 1 0 13 1;
#X connect 1 0 14 1;
#X connect 1 0 15 1;
#X connect 1 0 16 1;
#X connect 2 0 13 0;
#X connect 2 0 8 0;
#X connect 3 0 0 0;
#X connect 4 0 1 0;
#X connect 5 0 4 1;
#X connect 6 0 2 2;
#X connect 6 0 13 2;
#X connect 6 0 14 2;
#X connect 6 0 15 2;
#X connect 6 0 16 2;
#X connect 7 0 8 1;
#X connect 8 0 20 0;
#X connect 9 0 2 0;
#X connect 9 0 17 0;
#X connect 10 0 2 0;
#X connect 10 0 17 0;
#X connect 11 0 3 0;
#X connect 13 0 14 0;
#X connect 13 0 8 0;
#X connect 14 0 15 0;
#X connect 14 0 8 0;
#X connect 15 0 16 0;
#X connect 15 0 8 0;
#X connect 16 0 8 0;
#X connect 17 0 12 0;
#X connect 18 0 17 1;
#X connect 19 0 17 1;
#X connect 20 0 12 0;
#X connect 21 0 20 1;
#X connect 22 0 20 1;
#X connect 23 0 19 0;
#X connect 23 0 21 0;
#X connect 23 1 18 0;
#X connect 23 1 22 0;
#X connect 24 0 23 0;
#X restore 273 446 pd wah;
#X obj 272 11 +;
#X obj 240 66 +~;
#X obj 454 125 *;
#N canvas 0 0 450 300 vibrato 0;
#X floatatom -23 48 5 0 0 0 rate rate -;
#X obj 66 121 *~;
#X floatatom 44 8 5 0 0 0 depth depth -;
#X obj 91 95 +;
#X text 22 -10 vibrato;
#X obj 95 -32 ctlin 1;
#X floatatom 237 48 5 0 0 0 - - -;
#X obj 91 167 outlet~;
#X obj 56 29 t b f;
#X obj 6 101 osc~;
#X msg 30 69 0;
#X connect 0 0 9 0;
#X connect 1 0 7 0;
#X connect 2 0 8 0;
#X connect 3 0 1 1;
#X connect 5 0 6 0;
#X connect 6 0 3 0;
#X connect 8 0 3 0;
#X connect 8 1 3 1;
#X connect 9 0 1 0;
#X connect 10 0 9 1;
#X restore 166 33 pd vibrato;
#X connect 0 0 17 0;
#X connect 0 0 48 1;
#X connect 0 0 49 0;
#X connect 1 0 37 0;
#X connect 2 0 4 0;
#X connect 2 0 38 0;
#X connect 3 0 10 0;
#X connect 4 0 44 1;
#X connect 4 0 45 1;
#X connect 5 0 6 0;
#X connect 6 0 7 0;
#X connect 7 0 44 0;
#X connect 8 0 5 0;
#X connect 9 0 26 1;
#X connect 10 0 1 0;
#X connect 10 1 2 0;
#X connect 11 0 45 0;
#X connect 12 0 27 1;
#X connect 13 0 15 1;
#X connect 14 0 13 0;
#X connect 14 0 19 1;
#X connect 15 0 17 1;
#X connect 16 0 19 0;
#X connect 17 0 18 0;
#X connect 18 0 11 0;
#X connect 19 0 15 0;
#X connect 20 0 21 0;
#X connect 21 0 49 0;
#X connect 21 1 49 1;
#X connect 22 0 26 0;
#X connect 23 0 27 0;
#X connect 24 0 28 0;
#X connect 24 1 25 1;
#X connect 25 0 22 0;
#X connect 26 0 46 0;
#X connect 27 0 46 1;
#X connect 28 0 25 0;
#X connect 30 0 24 0;
#X connect 30 0 23 0;
#X connect 35 0 36 0;
#X connect 36 0 47 0;
#X connect 37 0 47 0;
#X connect 37 1 47 1;
#X connect 38 0 43 0;
#X connect 39 0 38 1;
#X connect 40 0 38 2;
#X connect 41 0 38 3;
#X connect 42 0 38 4;
#X connect 43 0 7 1;
#X connect 43 0 11 1;
#X connect 43 0 46 2;
#X connect 44 0 9 0;
#X connect 45 0 12 0;
#X connect 46 0 29 0;
#X connect 47 0 0 0;
#X connect 48 0 8 0;
#X connect 48 0 17 0;
#X connect 49 0 14 0;
#X connect 50 0 48 0;
#X restore 233 303 pd voice;
#N canvas 2 4 796 665 voice 0;
#X obj 272 37 mtof;
#X floatatom 206 -36 5 0 0 3 note - -;
#X floatatom 315 -33 5 0 0 3 velocity - -;
#X obj 249 -95 inlet;
#X obj 328 7 / 127;
#X obj 82 150 *~ 100;
#X obj 53 173 tabread~ wavetable;
#X obj 96 217 *~;
#X obj 112 118 phasor~;
#X obj 96 358 /~ 10;
#X obj 234 -67 unpack f f;
#X obj 424 309 *~;
#X obj 400 362 /~ 10;
#X obj 442 175 osc~;
#X floatatom 449 150 5 0 0 0 - - -;
#X obj 410 208 *~;
#X floatatom 479 64 5 0 0 0 index fm_index -;
#X obj 388 241 +~;
#X obj 388 274 osc~;
#X obj 405 175 *~;
#X floatatom 521 35 5 0 0 0 ratio fm_ratio -;
#X obj 519 100 t b f;
#X obj 229 245 vsl 15 128 0 1 0 0 empty empty empty 0 -9 0 10 -262144
-1 -1 5410 1;
#X obj 308 245 vsl 15 128 0 1 0 0 empty empty empty 0 -9 0 10 -262144
-1 -1 7290 1;
#X obj 255 242 t b f;
#X obj 269 297 -;
#X obj 122 389 *~;
#X obj 398 394 *~;
#X msg 248 270 1;
#X obj 271 519 outlet~;
#X obj 228 213 r crossfade;
#X text -40 82 wave table oscillation;
#X text 477 8 frequency modulation;
#X text 479 175 m;
#X text 425 274 c;
#X obj 160 -95 inlet;
#X floatatom 154 -19 5 0 0 3 pitchbend - -;
#X obj 263 -15 t b f;
#X obj 263 151 adsr-erbe~;
#X floatatom 216 120 5 0 0 2 attack attack -;
#X floatatom 266 118 5 0 0 2 decay decay -;
#X floatatom 312 117 5 0 0 2 sustain sustain -;
#X floatatom 361 127 5 0 0 2 release release -;
#X obj 238 180 *~ 0.01;
#X obj 127 247 *~;
#X obj 453 335 *~;
#N canvas 0 0 455 573 wah 0;
#X floatatom 216 89 5 0 0 0 - - -;
#X obj 167 156 mtof;
#X obj 156 191 bp~ 1000 10;
#X obj 196 50 env~;
#X obj 244 122 +;
#X floatatom 289 90 5 0 0 2 center_freq center_freq -;
#X floatatom 271 171 5 0 0 2 q q -;
#X floatatom 316 218 5 0 0 2 amplitude amplitude -;
#X obj 204 371 *~;
#X obj 73 14 inlet~;
#X obj 133 14 inlet~;
#X obj 190 13 inlet~;
#X obj 66 491 outlet~;
#X obj 181 220 bp~ 1000 10;
#X obj 202 250 bp~ 1000 10;
#X obj 229 280 bp~ 1000 10;
#X obj 252 314 bp~ 1000 10;
#X obj 23 349 *~;
#X msg 70 330 0;
#X msg 54 303 1;
#X obj 188 471 *~;
#X msg 120 434 0;
#X msg 153 435 1;
#X obj 92 259 moses 0.5;
#X obj 91 230 r wah;
#X connect 0 0 4 0;
#X connect 1 0 2 1;
#X connect 1 0 13 1;
#X connect 1 0 14 1;
#X connect 1 0 15 1;
#X connect 1 0 16 1;
#X connect 2 0 13 0;
#X connect 2 0 8 0;
#X connect 3 0 0 0;
#X connect 4 0 1 0;
#X connect 5 0 4 1;
#X connect 6 0 2 2;
#X connect 6 0 13 2;
#X connect 6 0 14 2;
#X connect 6 0 15 2;
#X connect 6 0 16 2;
#X connect 7 0 8 1;
#X connect 8 0 20 0;
#X connect 9 0 2 0;
#X connect 9 0 17 0;
#X connect 10 0 2 0;
#X connect 10 0 17 0;
#X connect 11 0 3 0;
#X connect 13 0 14 0;
#X connect 13 0 8 0;
#X connect 14 0 15 0;
#X connect 14 0 8 0;
#X connect 15 0 16 0;
#X connect 15 0 8 0;
#X connect 16 0 8 0;
#X connect 17 0 12 0;
#X connect 18 0 17 1;
#X connect 19 0 17 1;
#X connect 20 0 12 0;
#X connect 21 0 20 1;
#X connect 22 0 20 1;
#X connect 23 0 19 0;
#X connect 23 0 21 0;
#X connect 23 1 18 0;
#X connect 23 1 22 0;
#X connect 24 0 23 0;
#X restore 273 446 pd wah;
#X obj 272 11 +;
#X obj 240 66 +~;
#X obj 454 125 *;
#N canvas 0 0 450 300 vibrato 0;
#X floatatom -23 48 5 0 0 0 rate rate -;
#X obj 66 121 *~;
#X floatatom 44 8 5 0 0 0 depth depth -;
#X obj 91 95 +;
#X text 22 -10 vibrato;
#X obj 95 -32 ctlin 1;
#X floatatom 237 48 5 0 0 0 - - -;
#X obj 91 167 outlet~;
#X obj 56 29 t b f;
#X obj 6 101 osc~;
#X msg 30 69 0;
#X connect 0 0 9 0;
#X connect 1 0 7 0;
#X connect 2 0 8 0;
#X connect 3 0 1 1;
#X connect 5 0 6 0;
#X connect 6 0 3 0;
#X connect 8 0 3 0;
#X connect 8 1 3 1;
#X connect 9 0 1 0;
#X connect 10 0 9 1;
#X restore 166 33 pd vibrato;
#X connect 0 0 17 0;
#X connect 0 0 48 1;
#X connect 0 0 49 0;
#X connect 1 0 37 0;
#X connect 2 0 4 0;
#X connect 2 0 38 0;
#X connect 3 0 10 0;
#X connect 4 0 44 1;
#X connect 4 0 45 1;
#X connect 5 0 6 0;
#X connect 6 0 7 0;
#X connect 7 0 44 0;
#X connect 8 0 5 0;
#X connect 9 0 26 1;
#X connect 10 0 1 0;
#X connect 10 1 2 0;
#X connect 11 0 45 0;
#X connect 12 0 27 1;
#X connect 13 0 15 1;
#X connect 14 0 13 0;
#X connect 14 0 19 1;
#X connect 15 0 17 1;
#X connect 16 0 19 0;
#X connect 17 0 18 0;
#X connect 18 0 11 0;
#X connect 19 0 15 0;
#X connect 20 0 21 0;
#X connect 21 0 49 0;
#X connect 21 1 49 1;
#X connect 22 0 26 0;
#X connect 23 0 27 0;
#X connect 24 0 28 0;
#X connect 24 1 25 1;
#X connect 25 0 22 0;
#X connect 26 0 46 0;
#X connect 27 0 46 1;
#X connect 28 0 25 0;
#X connect 30 0 24 0;
#X connect 30 0 23 0;
#X connect 35 0 36 0;
#X connect 36 0 47 0;
#X connect 37 0 47 0;
#X connect 37 1 47 1;
#X connect 38 0 43 0;
#X connect 39 0 38 1;
#X connect 40 0 38 2;
#X connect 41 0 38 3;
#X connect 42 0 38 4;
#X connect 43 0 7 1;
#X connect 43 0 11 1;
#X connect 43 0 46 2;
#X connect 44 0 9 0;
#X connect 45 0 12 0;
#X connect 46 0 29 0;
#X connect 47 0 0 0;
#X connect 48 0 8 0;
#X connect 48 0 17 0;
#X connect 49 0 14 0;
#X connect 50 0 48 0;
#X restore 330 302 pd voice;
#N canvas 2 4 796 665 voice 0;
#X obj 272 37 mtof;
#X floatatom 206 -36 5 0 0 3 note - -;
#X floatatom 315 -33 5 0 0 3 velocity - -;
#X obj 249 -95 inlet;
#X obj 328 7 / 127;
#X obj 82 150 *~ 100;
#X obj 53 173 tabread~ wavetable;
#X obj 96 217 *~;
#X obj 112 118 phasor~;
#X obj 96 358 /~ 10;
#X obj 234 -67 unpack f f;
#X obj 424 309 *~;
#X obj 400 362 /~ 10;
#X obj 442 175 osc~;
#X floatatom 449 150 5 0 0 0 - - -;
#X obj 410 208 *~;
#X floatatom 479 64 5 0 0 0 index fm_index -;
#X obj 388 241 +~;
#X obj 388 274 osc~;
#X obj 405 175 *~;
#X floatatom 521 35 5 0 0 0 ratio fm_ratio -;
#X obj 519 100 t b f;
#X obj 229 245 vsl 15 128 0 1 0 0 empty empty empty 0 -9 0 10 -262144
-1 -1 5410 1;
#X obj 308 245 vsl 15 128 0 1 0 0 empty empty empty 0 -9 0 10 -262144
-1 -1 7290 1;
#X obj 255 242 t b f;
#X obj 269 297 -;
#X obj 122 389 *~;
#X obj 398 394 *~;
#X msg 248 270 1;
#X obj 271 519 outlet~;
#X obj 228 213 r crossfade;
#X text -40 82 wave table oscillation;
#X text 477 8 frequency modulation;
#X text 479 175 m;
#X text 425 274 c;
#X obj 160 -95 inlet;
#X floatatom 154 -19 5 0 0 3 pitchbend - -;
#X obj 263 -15 t b f;
#X obj 263 151 adsr-erbe~;
#X floatatom 216 120 5 0 0 2 attack attack -;
#X floatatom 266 118 5 0 0 2 decay decay -;
#X floatatom 312 117 5 0 0 2 sustain sustain -;
#X floatatom 361 127 5 0 0 2 release release -;
#X obj 238 180 *~ 0.01;
#X obj 127 247 *~;
#X obj 453 335 *~;
#N canvas 0 0 455 573 wah 0;
#X floatatom 216 89 5 0 0 0 - - -;
#X obj 167 156 mtof;
#X obj 156 191 bp~ 1000 10;
#X obj 196 50 env~;
#X obj 244 122 +;
#X floatatom 289 90 5 0 0 2 center_freq center_freq -;
#X floatatom 271 171 5 0 0 2 q q -;
#X floatatom 316 218 5 0 0 2 amplitude amplitude -;
#X obj 204 371 *~;
#X obj 73 14 inlet~;
#X obj 133 14 inlet~;
#X obj 190 13 inlet~;
#X obj 66 491 outlet~;
#X obj 181 220 bp~ 1000 10;
#X obj 202 250 bp~ 1000 10;
#X obj 229 280 bp~ 1000 10;
#X obj 252 314 bp~ 1000 10;
#X obj 23 349 *~;
#X msg 70 330 0;
#X msg 54 303 1;
#X obj 188 471 *~;
#X msg 120 434 0;
#X msg 153 435 1;
#X obj 92 259 moses 0.5;
#X obj 91 230 r wah;
#X connect 0 0 4 0;
#X connect 1 0 2 1;
#X connect 1 0 13 1;
#X connect 1 0 14 1;
#X connect 1 0 15 1;
#X connect 1 0 16 1;
#X connect 2 0 13 0;
#X connect 2 0 8 0;
#X connect 3 0 0 0;
#X connect 4 0 1 0;
#X connect 5 0 4 1;
#X connect 6 0 2 2;
#X connect 6 0 13 2;
#X connect 6 0 14 2;
#X connect 6 0 15 2;
#X connect 6 0 16 2;
#X connect 7 0 8 1;
#X connect 8 0 20 0;
#X connect 9 0 2 0;
#X connect 9 0 17 0;
#X connect 10 0 2 0;
#X connect 10 0 17 0;
#X connect 11 0 3 0;
#X connect 13 0 14 0;
#X connect 13 0 8 0;
#X connect 14 0 15 0;
#X connect 14 0 8 0;
#X connect 15 0 16 0;
#X connect 15 0 8 0;
#X connect 16 0 8 0;
#X connect 17 0 12 0;
#X connect 18 0 17 1;
#X connect 19 0 17 1;
#X connect 20 0 12 0;
#X connect 21 0 20 1;
#X connect 22 0 20 1;
#X connect 23 0 19 0;
#X connect 23 0 21 0;
#X connect 23 1 18 0;
#X connect 23 1 22 0;
#X connect 24 0 23 0;
#X restore 273 446 pd wah;
#X obj 272 11 +;
#X obj 240 66 +~;
#X obj 454 125 *;
#N canvas 0 0 450 300 vibrato 0;
#X floatatom -23 48 5 0 0 0 rate rate -;
#X obj 66 121 *~;
#X floatatom 44 8 5 0 0 0 depth depth -;
#X obj 91 95 +;
#X text 22 -10 vibrato;
#X obj 95 -32 ctlin 1;
#X floatatom 237 48 5 0 0 0 - - -;
#X obj 91 167 outlet~;
#X obj 56 29 t b f;
#X obj 6 101 osc~;
#X msg 30 69 0;
#X connect 0 0 9 0;
#X connect 1 0 7 0;
#X connect 2 0 8 0;
#X connect 3 0 1 1;
#X connect 5 0 6 0;
#X connect 6 0 3 0;
#X connect 8 0 3 0;
#X connect 8 1 3 1;
#X connect 9 0 1 0;
#X connect 10 0 9 1;
#X restore 166 33 pd vibrato;
#X connect 0 0 17 0;
#X connect 0 0 48 1;
#X connect 0 0 49 0;
#X connect 1 0 37 0;
#X connect 2 0 4 0;
#X connect 2 0 38 0;
#X connect 3 0 10 0;
#X connect 4 0 44 1;
#X connect 4 0 45 1;
#X connect 5 0 6 0;
#X connect 6 0 7 0;
#X connect 7 0 44 0;
#X connect 8 0 5 0;
#X connect 9 0 26 1;
#X connect 10 0 1 0;
#X connect 10 1 2 0;
#X connect 11 0 45 0;
#X connect 12 0 27 1;
#X connect 13 0 15 1;
#X connect 14 0 13 0;
#X connect 14 0 19 1;
#X connect 15 0 17 1;
#X connect 16 0 19 0;
#X connect 17 0 18 0;
#X connect 18 0 11 0;
#X connect 19 0 15 0;
#X connect 20 0 21 0;
#X connect 21 0 49 0;
#X connect 21 1 49 1;
#X connect 22 0 26 0;
#X connect 23 0 27 0;
#X connect 24 0 28 0;
#X connect 24 1 25 1;
#X connect 25 0 22 0;
#X connect 26 0 46 0;
#X connect 27 0 46 1;
#X connect 28 0 25 0;
#X connect 30 0 24 0;
#X connect 30 0 23 0;
#X connect 35 0 36 0;
#X connect 36 0 47 0;
#X connect 37 0 47 0;
#X connect 37 1 47 1;
#X connect 38 0 43 0;
#X connect 39 0 38 1;
#X connect 40 0 38 2;
#X connect 41 0 38 3;
#X connect 42 0 38 4;
#X connect 43 0 7 1;
#X connect 43 0 11 1;
#X connect 43 0 46 2;
#X connect 44 0 9 0;
#X connect 45 0 12 0;
#X connect 46 0 29 0;
#X connect 47 0 0 0;
#X connect 48 0 8 0;
#X connect 48 0 17 0;
#X connect 49 0 14 0;
#X connect 50 0 48 0;
#X restore 410 303 pd voice;
#N canvas 2 4 796 665 voice 0;
#X obj 272 37 mtof;
#X floatatom 206 -36 5 0 0 3 note - -;
#X floatatom 315 -33 5 0 0 3 velocity - -;
#X obj 249 -95 inlet;
#X obj 328 7 / 127;
#X obj 53 173 tabread~ wavetable;
#X obj 96 217 *~;
#X obj 112 118 phasor~;
#X obj 96 358 /~ 10;
#X obj 234 -67 unpack f f;
#X obj 424 309 *~;
#X obj 400 362 /~ 10;
#X obj 442 175 osc~;
#X floatatom 449 150 5 0 0 0 - - -;
#X obj 410 208 *~;
#X floatatom 479 64 5 0 0 0 index fm_index -;
#X obj 388 241 +~;
#X obj 388 274 osc~;
#X obj 405 175 *~;
#X floatatom 521 35 5 0 0 0 ratio fm_ratio -;
#X obj 519 100 t b f;
#X obj 229 245 vsl 15 128 0 1 0 0 empty empty empty 0 -9 0 10 -262144
-1 -1 5410 1;
#X obj 308 245 vsl 15 128 0 1 0 0 empty empty empty 0 -9 0 10 -262144
-1 -1 7290 1;
#X obj 255 242 t b f;
#X obj 269 297 -;
#X obj 122 389 *~;
#X obj 398 394 *~;
#X msg 248 270 1;
#X obj 271 519 outlet~;
#X obj 228 213 r crossfade;
#X text -40 82 wave table oscillation;
#X text 477 8 frequency modulation;
#X text 479 175 m;
#X text 425 274 c;
#X obj 160 -95 inlet;
#X floatatom 154 -19 5 0 0 3 pitchbend - -;
#X obj 263 -15 t b f;
#X obj 263 151 adsr-erbe~;
#X floatatom 216 120 5 0 0 2 attack attack -;
#X floatatom 266 118 5 0 0 2 decay decay -;
#X floatatom 312 117 5 0 0 2 sustain sustain -;
#X floatatom 361 127 5 0 0 2 release release -;
#X obj 238 180 *~ 0.01;
#X obj 127 247 *~;
#X obj 453 335 *~;
#N canvas 0 0 455 573 wah 0;
#X floatatom 216 89 5 0 0 0 - - -;
#X obj 167 156 mtof;
#X obj 156 191 bp~ 1000 10;
#X obj 196 50 env~;
#X obj 244 122 +;
#X floatatom 289 90 5 0 0 2 center_freq center_freq -;
#X floatatom 271 171 5 0 0 2 q q -;
#X floatatom 316 218 5 0 0 2 amplitude amplitude -;
#X obj 204 371 *~;
#X obj 73 14 inlet~;
#X obj 133 14 inlet~;
#X obj 190 13 inlet~;
#X obj 66 491 outlet~;
#X obj 181 220 bp~ 1000 10;
#X obj 202 250 bp~ 1000 10;
#X obj 229 280 bp~ 1000 10;
#X obj 252 314 bp~ 1000 10;
#X obj 23 349 *~;
#X msg 70 330 0;
#X msg 54 303 1;
#X obj 188 471 *~;
#X msg 120 434 0;
#X msg 153 435 1;
#X obj 92 259 moses 0.5;
#X obj 91 230 r wah;
#X connect 0 0 4 0;
#X connect 1 0 2 1;
#X connect 1 0 13 1;
#X connect 1 0 14 1;
#X connect 1 0 15 1;
#X connect 1 0 16 1;
#X connect 2 0 13 0;
#X connect 2 0 8 0;
#X connect 3 0 0 0;
#X connect 4 0 1 0;
#X connect 5 0 4 1;
#X connect 6 0 2 2;
#X connect 6 0 13 2;
#X connect 6 0 14 2;
#X connect 6 0 15 2;
#X connect 6 0 16 2;
#X connect 7 0 8 1;
#X connect 8 0 20 0;
#X connect 9 0 2 0;
#X connect 9 0 17 0;
#X connect 10 0 2 0;
#X connect 10 0 17 0;
#X connect 11 0 3 0;
#X connect 13 0 14 0;
#X connect 13 0 8 0;
#X connect 14 0 15 0;
#X connect 14 0 8 0;
#X connect 15 0 16 0;
#X connect 15 0 8 0;
#X connect 16 0 8 0;
#X connect 17 0 12 0;
#X connect 18 0 17 1;
#X connect 19 0 17 1;
#X connect 20 0 12 0;
#X connect 21 0 20 1;
#X connect 22 0 20 1;
#X connect 23 0 19 0;
#X connect 23 0 21 0;
#X connect 23 1 18 0;
#X connect 23 1 22 0;
#X connect 24 0 23 0;
#X restore 273 446 pd wah;
#X obj 272 11 +;
#X obj 240 66 +~;
#X obj 454 125 *;
#N canvas 0 0 450 300 vibrato 0;
#X floatatom -23 48 5 0 0 0 rate rate -;
#X obj 66 121 *~;
#X floatatom 44 8 5 0 0 0 depth depth -;
#X obj 91 95 +;
#X text 22 -10 vibrato;
#X obj 95 -32 ctlin 1;
#X floatatom 237 48 5 0 0 0 - - -;
#X obj 91 167 outlet~;
#X obj 56 29 t b f;
#X obj 6 101 osc~;
#X msg 30 69 0;
#X connect 0 0 9 0;
#X connect 1 0 7 0;
#X connect 2 0 8 0;
#X connect 3 0 1 1;
#X connect 5 0 6 0;
#X connect 6 0 3 0;
#X connect 8 0 3 0;
#X connect 8 1 3 1;
#X connect 9 0 1 0;
#X connect 10 0 9 1;
#X restore 166 33 pd vibrato;
#X obj 82 150 *~ 100;
#X connect 0 0 16 0;
#X connect 0 0 47 1;
#X connect 0 0 48 0;
#X connect 1 0 36 0;
#X connect 2 0 4 0;
#X connect 2 0 37 0;
#X connect 3 0 9 0;
#X connect 4 0 43 1;
#X connect 4 0 44 1;
#X connect 5 0 6 0;
#X connect 6 0 43 0;
#X connect 7 0 50 0;
#X connect 8 0 25 1;
#X connect 9 0 1 0;
#X connect 9 1 2 0;
#X connect 10 0 44 0;
#X connect 11 0 26 1;
#X connect 12 0 14 1;
#X connect 13 0 12 0;
#X connect 13 0 18 1;
#X connect 14 0 16 1;
#X connect 15 0 18 0;
#X connect 16 0 17 0;
#X connect 17 0 10 0;
#X connect 18 0 14 0;
#X connect 19 0 20 0;
#X connect 20 0 48 0;
#X connect 20 1 48 1;
#X connect 21 0 25 0;
#X connect 22 0 26 0;
#X connect 23 0 27 0;
#X connect 23 1 24 1;
#X connect 24 0 21 0;
#X connect 25 0 45 0;
#X connect 26 0 45 1;
#X connect 27 0 24 0;
#X connect 29 0 23 0;
#X connect 29 0 22 0;
#X connect 34 0 35 0;
#X connect 35 0 46 0;
#X connect 36 0 46 0;
#X connect 36 1 46 1;
#X connect 37 0 42 0;
#X connect 38 0 37 1;
#X connect 39 0 37 2;
#X connect 40 0 37 3;
#X connect 41 0 37 4;
#X connect 42 0 6 1;
#X connect 42 0 10 1;
#X connect 42 0 45 2;
#X connect 43 0 8 0;
#X connect 44 0 11 0;
#X connect 45 0 28 0;
#X connect 46 0 0 0;
#X connect 47 0 7 0;
#X connect 47 0 16 0;
#X connect 48 0 13 0;
#X connect 49 0 47 0;
#X connect 50 0 5 0;
#X restore 114 330 pd voice;
#N canvas 2 4 796 665 voice 0;
#X obj 272 37 mtof;
#X floatatom 206 -36 5 0 0 3 note - -;
#X floatatom 315 -33 5 0 0 3 velocity - -;
#X obj 249 -95 inlet;
#X obj 328 7 / 127;
#X obj 82 150 *~ 100;
#X obj 53 173 tabread~ wavetable;
#X obj 96 217 *~;
#X obj 112 118 phasor~;
#X obj 96 358 /~ 10;
#X obj 234 -67 unpack f f;
#X obj 424 309 *~;
#X obj 400 362 /~ 10;
#X obj 442 175 osc~;
#X floatatom 449 150 5 0 0 0 - - -;
#X obj 410 208 *~;
#X floatatom 479 64 5 0 0 0 index fm_index -;
#X obj 388 241 +~;
#X obj 388 274 osc~;
#X obj 405 175 *~;
#X floatatom 521 35 5 0 0 0 ratio fm_ratio -;
#X obj 519 100 t b f;
#X obj 229 245 vsl 15 128 0 1 0 0 empty empty empty 0 -9 0 10 -262144
-1 -1 5410 1;
#X obj 308 245 vsl 15 128 0 1 0 0 empty empty empty 0 -9 0 10 -262144
-1 -1 7290 1;
#X obj 255 242 t b f;
#X obj 269 297 -;
#X obj 122 389 *~;
#X obj 398 394 *~;
#X msg 248 270 1;
#X obj 271 519 outlet~;
#X obj 228 213 r crossfade;
#X text -40 82 wave table oscillation;
#X text 477 8 frequency modulation;
#X text 479 175 m;
#X text 425 274 c;
#X obj 160 -95 inlet;
#X floatatom 154 -19 5 0 0 3 pitchbend - -;
#X obj 263 -15 t b f;
#X obj 263 151 adsr-erbe~;
#X floatatom 216 120 5 0 0 2 attack attack -;
#X floatatom 266 118 5 0 0 2 decay decay -;
#X floatatom 312 117 5 0 0 2 sustain sustain -;
#X floatatom 361 127 5 0 0 2 release release -;
#X obj 238 180 *~ 0.01;
#X obj 127 247 *~;
#X obj 453 335 *~;
#N canvas 0 0 455 573 wah 0;
#X floatatom 216 89 5 0 0 0 - - -;
#X obj 167 156 mtof;
#X obj 156 191 bp~ 1000 10;
#X obj 196 50 env~;
#X obj 244 122 +;
#X floatatom 289 90 5 0 0 2 center_freq center_freq -;
#X floatatom 271 171 5 0 0 2 q q -;
#X floatatom 316 218 5 0 0 2 amplitude amplitude -;
#X obj 204 371 *~;
#X obj 73 14 inlet~;
#X obj 133 14 inlet~;
#X obj 190 13 inlet~;
#X obj 66 491 outlet~;
#X obj 181 220 bp~ 1000 10;
#X obj 202 250 bp~ 1000 10;
#X obj 229 280 bp~ 1000 10;
#X obj 252 314 bp~ 1000 10;
#X obj 23 349 *~;
#X msg 70 330 0;
#X msg 54 303 1;
#X obj 188 471 *~;
#X msg 120 434 0;
#X msg 153 435 1;
#X obj 92 259 moses 0.5;
#X obj 91 230 r wah;
#X connect 0 0 4 0;
#X connect 1 0 2 1;
#X connect 1 0 13 1;
#X connect 1 0 14 1;
#X connect 1 0 15 1;
#X connect 1 0 16 1;
#X connect 2 0 13 0;
#X connect 2 0 8 0;
#X connect 3 0 0 0;
#X connect 4 0 1 0;
#X connect 5 0 4 1;
#X connect 6 0 2 2;
#X connect 6 0 13 2;
#X connect 6 0 14 2;
#X connect 6 0 15 2;
#X connect 6 0 16 2;
#X connect 7 0 8 1;
#X connect 8 0 20 0;
#X connect 9 0 2 0;
#X connect 9 0 17 0;
#X connect 10 0 2 0;
#X connect 10 0 17 0;
#X connect 11 0 3 0;
#X connect 13 0 14 0;
#X connect 13 0 8 0;
#X connect 14 0 15 0;
#X connect 14 0 8 0;
#X connect 15 0 16 0;
#X connect 15 0 8 0;
#X connect 16 0 8 0;
#X connect 17 0 12 0;
#X connect 18 0 17 1;
#X connect 19 0 17 1;
#X connect 20 0 12 0;
#X connect 21 0 20 1;
#X connect 22 0 20 1;
#X connect 23 0 19 0;
#X connect 23 0 21 0;
#X connect 23 1 18 0;
#X connect 23 1 22 0;
#X connect 24 0 23 0;
#X restore 273 446 pd wah;
#X obj 272 11 +;
#X obj 240 66 +~;
#X obj 454 125 *;
#N canvas 0 0 450 300 vibrato 0;
#X floatatom -23 48 5 0 0 0 rate rate -;
#X obj 66 121 *~;
#X floatatom 44 8 5 0 0 0 depth depth -;
#X obj 91 95 +;
#X text 22 -10 vibrato;
#X obj 95 -32 ctlin 1;
#X floatatom 237 48 5 0 0 0 - - -;
#X obj 91 167 outlet~;
#X obj 56 29 t b f;
#X obj 6 101 osc~;
#X msg 30 69 0;
#X connect 0 0 9 0;
#X connect 1 0 7 0;
#X connect 2 0 8 0;
#X connect 3 0 1 1;
#X connect 5 0 6 0;
#X connect 6 0 3 0;
#X connect 8 0 3 0;
#X connect 8 1 3 1;
#X connect 9 0 1 0;
#X connect 10 0 9 1;
#X restore 166 33 pd vibrato;
#X connect 0 0 17 0;
#X connect 0 0 48 1;
#X connect 0 0 49 0;
#X connect 1 0 37 0;
#X connect 2 0 4 0;
#X connect 2 0 38 0;
#X connect 3 0 10 0;
#X connect 4 0 44 1;
#X connect 4 0 45 1;
#X connect 5 0 6 0;
#X connect 6 0 7 0;
#X connect 7 0 44 0;
#X connect 8 0 5 0;
#X connect 9 0 26 1;
#X connect 10 0 1 0;
#X connect 10 1 2 0;
#X connect 11 0 45 0;
#X connect 12 0 27 1;
#X connect 13 0 15 1;
#X connect 14 0 13 0;
#X connect 14 0 19 1;
#X connect 15 0 17 1;
#X connect 16 0 19 0;
#X connect 17 0 18 0;
#X connect 18 0 11 0;
#X connect 19 0 15 0;
#X connect 20 0 21 0;
#X connect 21 0 49 0;
#X connect 21 1 49 1;
#X connect 22 0 26 0;
#X connect 23 0 27 0;
#X connect 24 0 28 0;
#X connect 24 1 25 1;
#X connect 25 0 22 0;
#X connect 26 0 46 0;
#X connect 27 0 46 1;
#X connect 28 0 25 0;
#X connect 30 0 24 0;
#X connect 30 0 23 0;
#X connect 35 0 36 0;
#X connect 36 0 47 0;
#X connect 37 0 47 0;
#X connect 37 1 47 1;
#X connect 38 0 43 0;
#X connect 39 0 38 1;
#X connect 40 0 38 2;
#X connect 41 0 38 3;
#X connect 42 0 38 4;
#X connect 43 0 7 1;
#X connect 43 0 11 1;
#X connect 43 0 46 2;
#X connect 44 0 9 0;
#X connect 45 0 12 0;
#X connect 46 0 29 0;
#X connect 47 0 0 0;
#X connect 48 0 8 0;
#X connect 48 0 17 0;
#X connect 49 0 14 0;
#X connect 50 0 48 0;
#X restore 191 333 pd voice;
#N canvas 2 4 796 665 voice 0;
#X obj 272 37 mtof;
#X floatatom 206 -36 5 0 0 3 note - -;
#X floatatom 315 -33 5 0 0 3 velocity - -;
#X obj 249 -95 inlet;
#X obj 328 7 / 127;
#X obj 82 150 *~ 100;
#X obj 53 173 tabread~ wavetable;
#X obj 96 217 *~;
#X obj 112 118 phasor~;
#X obj 96 358 /~ 10;
#X obj 234 -67 unpack f f;
#X obj 424 309 *~;
#X obj 400 362 /~ 10;
#X obj 442 175 osc~;
#X floatatom 449 150 5 0 0 0 - - -;
#X obj 410 208 *~;
#X floatatom 479 64 5 0 0 0 index fm_index -;
#X obj 388 241 +~;
#X obj 388 274 osc~;
#X obj 405 175 *~;
#X floatatom 521 35 5 0 0 0 ratio fm_ratio -;
#X obj 519 100 t b f;
#X obj 229 245 vsl 15 128 0 1 0 0 empty empty empty 0 -9 0 10 -262144
-1 -1 5410 1;
#X obj 308 245 vsl 15 128 0 1 0 0 empty empty empty 0 -9 0 10 -262144
-1 -1 7290 1;
#X obj 255 242 t b f;
#X obj 269 297 -;
#X obj 122 389 *~;
#X obj 398 394 *~;
#X msg 248 270 1;
#X obj 271 519 outlet~;
#X obj 228 213 r crossfade;
#X text -40 82 wave table oscillation;
#X text 477 8 frequency modulation;
#X text 479 175 m;
#X text 425 274 c;
#X obj 160 -95 inlet;
#X floatatom 154 -19 5 0 0 3 pitchbend - -;
#X obj 263 -15 t b f;
#X obj 263 151 adsr-erbe~;
#X floatatom 216 120 5 0 0 2 attack attack -;
#X floatatom 266 118 5 0 0 2 decay decay -;
#X floatatom 312 117 5 0 0 2 sustain sustain -;
#X floatatom 361 127 5 0 0 2 release release -;
#X obj 238 180 *~ 0.01;
#X obj 127 247 *~;
#X obj 453 335 *~;
#N canvas 0 0 455 573 wah 0;
#X floatatom 216 89 5 0 0 0 - - -;
#X obj 167 156 mtof;
#X obj 156 191 bp~ 1000 10;
#X obj 196 50 env~;
#X obj 244 122 +;
#X floatatom 289 90 5 0 0 2 center_freq center_freq -;
#X floatatom 271 171 5 0 0 2 q q -;
#X floatatom 316 218 5 0 0 2 amplitude amplitude -;
#X obj 204 371 *~;
#X obj 73 14 inlet~;
#X obj 133 14 inlet~;
#X obj 190 13 inlet~;
#X obj 66 491 outlet~;
#X obj 181 220 bp~ 1000 10;
#X obj 202 250 bp~ 1000 10;
#X obj 229 280 bp~ 1000 10;
#X obj 252 314 bp~ 1000 10;
#X obj 23 349 *~;
#X msg 70 330 0;
#X msg 54 303 1;
#X obj 188 471 *~;
#X msg 120 434 0;
#X msg 153 435 1;
#X obj 92 259 moses 0.5;
#X obj 91 230 r wah;
#X connect 0 0 4 0;
#X connect 1 0 2 1;
#X connect 1 0 13 1;
#X connect 1 0 14 1;
#X connect 1 0 15 1;
#X connect 1 0 16 1;
#X connect 2 0 13 0;
#X connect 2 0 8 0;
#X connect 3 0 0 0;
#X connect 4 0 1 0;
#X connect 5 0 4 1;
#X connect 6 0 2 2;
#X connect 6 0 13 2;
#X connect 6 0 14 2;
#X connect 6 0 15 2;
#X connect 6 0 16 2;
#X connect 7 0 8 1;
#X connect 8 0 20 0;
#X connect 9 0 2 0;
#X connect 9 0 17 0;
#X connect 10 0 2 0;
#X connect 10 0 17 0;
#X connect 11 0 3 0;
#X connect 13 0 14 0;
#X connect 13 0 8 0;
#X connect 14 0 15 0;
#X connect 14 0 8 0;
#X connect 15 0 16 0;
#X connect 15 0 8 0;
#X connect 16 0 8 0;
#X connect 17 0 12 0;
#X connect 18 0 17 1;
#X connect 19 0 17 1;
#X connect 20 0 12 0;
#X connect 21 0 20 1;
#X connect 22 0 20 1;
#X connect 23 0 19 0;
#X connect 23 0 21 0;
#X connect 23 1 18 0;
#X connect 23 1 22 0;
#X connect 24 0 23 0;
#X restore 273 446 pd wah;
#X obj 272 11 +;
#X obj 240 66 +~;
#X obj 454 125 *;
#N canvas 0 0 450 300 vibrato 0;
#X floatatom -23 48 5 0 0 0 rate rate -;
#X obj 66 121 *~;
#X floatatom 44 8 5 0 0 0 depth depth -;
#X obj 91 95 +;
#X text 22 -10 vibrato;
#X obj 95 -32 ctlin 1;
#X floatatom 237 48 5 0 0 0 - - -;
#X obj 91 167 outlet~;
#X obj 56 29 t b f;
#X obj 6 101 osc~;
#X msg 30 69 0;
#X connect 0 0 9 0;
#X connect 1 0 7 0;
#X connect 2 0 8 0;
#X connect 3 0 1 1;
#X connect 5 0 6 0;
#X connect 6 0 3 0;
#X connect 8 0 3 0;
#X connect 8 1 3 1;
#X connect 9 0 1 0;
#X connect 10 0 9 1;
#X restore 166 33 pd vibrato;
#X connect 0 0 17 0;
#X connect 0 0 48 1;
#X connect 0 0 49 0;
#X connect 1 0 37 0;
#X connect 2 0 4 0;
#X connect 2 0 38 0;
#X connect 3 0 10 0;
#X connect 4 0 44 1;
#X connect 4 0 45 1;
#X connect 5 0 6 0;
#X connect 6 0 7 0;
#X connect 7 0 44 0;
#X connect 8 0 5 0;
#X connect 9 0 26 1;
#X connect 10 0 1 0;
#X connect 10 1 2 0;
#X connect 11 0 45 0;
#X connect 12 0 27 1;
#X connect 13 0 15 1;
#X connect 14 0 13 0;
#X connect 14 0 19 1;
#X connect 15 0 17 1;
#X connect 16 0 19 0;
#X connect 17 0 18 0;
#X connect 18 0 11 0;
#X connect 19 0 15 0;
#X connect 20 0 21 0;
#X connect 21 0 49 0;
#X connect 21 1 49 1;
#X connect 22 0 26 0;
#X connect 23 0 27 0;
#X connect 24 0 28 0;
#X connect 24 1 25 1;
#X connect 25 0 22 0;
#X connect 26 0 46 0;
#X connect 27 0 46 1;
#X connect 28 0 25 0;
#X connect 30 0 24 0;
#X connect 30 0 23 0;
#X connect 35 0 36 0;
#X connect 36 0 47 0;
#X connect 37 0 47 0;
#X connect 37 1 47 1;
#X connect 38 0 43 0;
#X connect 39 0 38 1;
#X connect 40 0 38 2;
#X connect 41 0 38 3;
#X connect 42 0 38 4;
#X connect 43 0 7 1;
#X connect 43 0 11 1;
#X connect 43 0 46 2;
#X connect 44 0 9 0;
#X connect 45 0 12 0;
#X connect 46 0 29 0;
#X connect 47 0 0 0;
#X connect 48 0 8 0;
#X connect 48 0 17 0;
#X connect 49 0 14 0;
#X connect 50 0 48 0;
#X restore 269 330 pd voice;
#N canvas 2 4 796 665 voice 0;
#X obj 272 37 mtof;
#X floatatom 206 -36 5 0 0 3 note - -;
#X floatatom 315 -33 5 0 0 3 velocity - -;
#X obj 249 -95 inlet;
#X obj 328 7 / 127;
#X obj 82 150 *~ 100;
#X obj 53 173 tabread~ wavetable;
#X obj 96 217 *~;
#X obj 112 118 phasor~;
#X obj 96 358 /~ 10;
#X obj 234 -67 unpack f f;
#X obj 424 309 *~;
#X obj 400 362 /~ 10;
#X obj 442 175 osc~;
#X floatatom 449 150 5 0 0 0 - - -;
#X obj 410 208 *~;
#X floatatom 479 64 5 0 0 0 index fm_index -;
#X obj 388 241 +~;
#X obj 388 274 osc~;
#X obj 405 175 *~;
#X floatatom 521 35 5 0 0 0 ratio fm_ratio -;
#X obj 519 100 t b f;
#X obj 229 245 vsl 15 128 0 1 0 0 empty empty empty 0 -9 0 10 -262144
-1 -1 5410 1;
#X obj 308 245 vsl 15 128 0 1 0 0 empty empty empty 0 -9 0 10 -262144
-1 -1 7290 1;
#X obj 255 242 t b f;
#X obj 269 297 -;
#X obj 122 389 *~;
#X obj 398 394 *~;
#X msg 248 270 1;
#X obj 271 519 outlet~;
#X obj 228 213 r crossfade;
#X text -40 82 wave table oscillation;
#X text 477 8 frequency modulation;
#X text 479 175 m;
#X text 425 274 c;
#X obj 160 -95 inlet;
#X floatatom 154 -19 5 0 0 3 pitchbend - -;
#X obj 263 -15 t b f;
#X obj 263 151 adsr-erbe~;
#X floatatom 216 120 5 0 0 2 attack attack -;
#X floatatom 266 118 5 0 0 2 decay decay -;
#X floatatom 312 117 5 0 0 2 sustain sustain -;
#X floatatom 361 127 5 0 0 2 release release -;
#X obj 238 180 *~ 0.01;
#X obj 127 247 *~;
#X obj 453 335 *~;
#N canvas 0 0 455 573 wah 0;
#X floatatom 216 89 5 0 0 0 - - -;
#X obj 167 156 mtof;
#X obj 156 191 bp~ 1000 10;
#X obj 196 50 env~;
#X obj 244 122 +;
#X floatatom 289 90 5 0 0 2 center_freq center_freq -;
#X floatatom 271 171 5 0 0 2 q q -;
#X floatatom 316 218 5 0 0 2 amplitude amplitude -;
#X obj 204 371 *~;
#X obj 73 14 inlet~;
#X obj 133 14 inlet~;
#X obj 190 13 inlet~;
#X obj 66 491 outlet~;
#X obj 181 220 bp~ 1000 10;
#X obj 202 250 bp~ 1000 10;
#X obj 229 280 bp~ 1000 10;
#X obj 252 314 bp~ 1000 10;
#X obj 23 349 *~;
#X msg 70 330 0;
#X msg 54 303 1;
#X obj 188 471 *~;
#X msg 120 434 0;
#X msg 153 435 1;
#X obj 92 259 moses 0.5;
#X obj 91 230 r wah;
#X connect 0 0 4 0;
#X connect 1 0 2 1;
#X connect 1 0 13 1;
#X connect 1 0 14 1;
#X connect 1 0 15 1;
#X connect 1 0 16 1;
#X connect 2 0 13 0;
#X connect 2 0 8 0;
#X connect 3 0 0 0;
#X connect 4 0 1 0;
#X connect 5 0 4 1;
#X connect 6 0 2 2;
#X connect 6 0 13 2;
#X connect 6 0 14 2;
#X connect 6 0 15 2;
#X connect 6 0 16 2;
#X connect 7 0 8 1;
#X connect 8 0 20 0;
#X connect 9 0 2 0;
#X connect 9 0 17 0;
#X connect 10 0 2 0;
#X connect 10 0 17 0;
#X connect 11 0 3 0;
#X connect 13 0 14 0;
#X connect 13 0 8 0;
#X connect 14 0 15 0;
#X connect 14 0 8 0;
#X connect 15 0 16 0;
#X connect 15 0 8 0;
#X connect 16 0 8 0;
#X connect 17 0 12 0;
#X connect 18 0 17 1;
#X connect 19 0 17 1;
#X connect 20 0 12 0;
#X connect 21 0 20 1;
#X connect 22 0 20 1;
#X connect 23 0 19 0;
#X connect 23 0 21 0;
#X connect 23 1 18 0;
#X connect 23 1 22 0;
#X connect 24 0 23 0;
#X restore 273 446 pd wah;
#X obj 272 11 +;
#X obj 240 66 +~;
#X obj 454 125 *;
#N canvas 0 0 450 300 vibrato 0;
#X floatatom -23 48 5 0 0 0 rate rate -;
#X obj 66 121 *~;
#X floatatom 44 8 5 0 0 0 depth depth -;
#X obj 91 95 +;
#X text 22 -10 vibrato;
#X obj 95 -32 ctlin 1;
#X floatatom 237 48 5 0 0 0 - - -;
#X obj 91 167 outlet~;
#X obj 56 29 t b f;
#X obj 6 101 osc~;
#X msg 30 69 0;
#X connect 0 0 9 0;
#X connect 1 0 7 0;
#X connect 2 0 8 0;
#X connect 3 0 1 1;
#X connect 5 0 6 0;
#X connect 6 0 3 0;
#X connect 8 0 3 0;
#X connect 8 1 3 1;
#X connect 9 0 1 0;
#X connect 10 0 9 1;
#X restore 166 33 pd vibrato;
#X connect 0 0 17 0;
#X connect 0 0 48 1;
#X connect 0 0 49 0;
#X connect 1 0 37 0;
#X connect 2 0 4 0;
#X connect 2 0 38 0;
#X connect 3 0 10 0;
#X connect 4 0 44 1;
#X connect 4 0 45 1;
#X connect 5 0 6 0;
#X connect 6 0 7 0;
#X connect 7 0 44 0;
#X connect 8 0 5 0;
#X connect 9 0 26 1;
#X connect 10 0 1 0;
#X connect 10 1 2 0;
#X connect 11 0 45 0;
#X connect 12 0 27 1;
#X connect 13 0 15 1;
#X connect 14 0 13 0;
#X connect 14 0 19 1;
#X connect 15 0 17 1;
#X connect 16 0 19 0;
#X connect 17 0 18 0;
#X connect 18 0 11 0;
#X connect 19 0 15 0;
#X connect 20 0 21 0;
#X connect 21 0 49 0;
#X connect 21 1 49 1;
#X connect 22 0 26 0;
#X connect 23 0 27 0;
#X connect 24 0 28 0;
#X connect 24 1 25 1;
#X connect 25 0 22 0;
#X connect 26 0 46 0;
#X connect 27 0 46 1;
#X connect 28 0 25 0;
#X connect 30 0 24 0;
#X connect 30 0 23 0;
#X connect 35 0 36 0;
#X connect 36 0 47 0;
#X connect 37 0 47 0;
#X connect 37 1 47 1;
#X connect 38 0 43 0;
#X connect 39 0 38 1;
#X connect 40 0 38 2;
#X connect 41 0 38 3;
#X connect 42 0 38 4;
#X connect 43 0 7 1;
#X connect 43 0 11 1;
#X connect 43 0 46 2;
#X connect 44 0 9 0;
#X connect 45 0 12 0;
#X connect 46 0 29 0;
#X connect 47 0 0 0;
#X connect 48 0 8 0;
#X connect 48 0 17 0;
#X connect 49 0 14 0;
#X connect 50 0 48 0;
#X restore 340 333 pd voice;
#N canvas 2 4 796 665 voice 0;
#X obj 272 37 mtof;
#X floatatom 206 -36 5 0 0 3 note - -;
#X floatatom 315 -33 5 0 0 3 velocity - -;
#X obj 249 -95 inlet;
#X obj 328 7 / 127;
#X obj 82 150 *~ 100;
#X obj 53 173 tabread~ wavetable;
#X obj 96 217 *~;
#X obj 112 118 phasor~;
#X obj 96 358 /~ 10;
#X obj 234 -67 unpack f f;
#X obj 424 309 *~;
#X obj 400 362 /~ 10;
#X obj 442 175 osc~;
#X floatatom 449 150 5 0 0 0 - - -;
#X obj 410 208 *~;
#X floatatom 479 64 5 0 0 0 index fm_index -;
#X obj 388 241 +~;
#X obj 388 274 osc~;
#X obj 405 175 *~;
#X floatatom 521 35 5 0 0 0 ratio fm_ratio -;
#X obj 519 100 t b f;
#X obj 229 245 vsl 15 128 0 1 0 0 empty empty empty 0 -9 0 10 -262144
-1 -1 5410 1;
#X obj 308 245 vsl 15 128 0 1 0 0 empty empty empty 0 -9 0 10 -262144
-1 -1 7290 1;
#X obj 255 242 t b f;
#X obj 269 297 -;
#X obj 122 389 *~;
#X obj 398 394 *~;
#X msg 248 270 1;
#X obj 271 519 outlet~;
#X obj 228 213 r crossfade;
#X text -40 82 wave table oscillation;
#X text 477 8 frequency modulation;
#X text 479 175 m;
#X text 425 274 c;
#X obj 160 -95 inlet;
#X floatatom 154 -19 5 0 0 3 pitchbend - -;
#X obj 263 -15 t b f;
#X obj 263 151 adsr-erbe~;
#X floatatom 216 120 5 0 0 2 attack attack -;
#X floatatom 266 118 5 0 0 2 decay decay -;
#X floatatom 312 117 5 0 0 2 sustain sustain -;
#X floatatom 361 127 5 0 0 2 release release -;
#X obj 238 180 *~ 0.01;
#X obj 127 247 *~;
#X obj 453 335 *~;
#N canvas 0 0 455 573 wah 0;
#X floatatom 216 89 5 0 0 0 - - -;
#X obj 167 156 mtof;
#X obj 156 191 bp~ 1000 10;
#X obj 196 50 env~;
#X obj 244 122 +;
#X floatatom 289 90 5 0 0 2 center_freq center_freq -;
#X floatatom 271 171 5 0 0 2 q q -;
#X floatatom 316 218 5 0 0 2 amplitude amplitude -;
#X obj 204 371 *~;
#X obj 73 14 inlet~;
#X obj 133 14 inlet~;
#X obj 190 13 inlet~;
#X obj 66 491 outlet~;
#X obj 181 220 bp~ 1000 10;
#X obj 202 250 bp~ 1000 10;
#X obj 229 280 bp~ 1000 10;
#X obj 252 314 bp~ 1000 10;
#X obj 23 349 *~;
#X msg 70 330 0;
#X msg 54 303 1;
#X obj 188 471 *~;
#X msg 120 434 0;
#X msg 153 435 1;
#X obj 92 259 moses 0.5;
#X obj 91 230 r wah;
#X connect 0 0 4 0;
#X connect 1 0 2 1;
#X connect 1 0 13 1;
#X connect 1 0 14 1;
#X connect 1 0 15 1;
#X connect 1 0 16 1;
#X connect 2 0 13 0;
#X connect 2 0 8 0;
#X connect 3 0 0 0;
#X connect 4 0 1 0;
#X connect 5 0 4 1;
#X connect 6 0 2 2;
#X connect 6 0 13 2;
#X connect 6 0 14 2;
#X connect 6 0 15 2;
#X connect 6 0 16 2;
#X connect 7 0 8 1;
#X connect 8 0 20 0;
#X connect 9 0 2 0;
#X connect 9 0 17 0;
#X connect 10 0 2 0;
#X connect 10 0 17 0;
#X connect 11 0 3 0;
#X connect 13 0 14 0;
#X connect 13 0 8 0;
#X connect 14 0 15 0;
#X connect 14 0 8 0;
#X connect 15 0 16 0;
#X connect 15 0 8 0;
#X connect 16 0 8 0;
#X connect 17 0 12 0;
#X connect 18 0 17 1;
#X connect 19 0 17 1;
#X connect 20 0 12 0;
#X connect 21 0 20 1;
#X connect 22 0 20 1;
#X connect 23 0 19 0;
#X connect 23 0 21 0;
#X connect 23 1 18 0;
#X connect 23 1 22 0;
#X connect 24 0 23 0;
#X restore 273 446 pd wah;
#X obj 272 11 +;
#X obj 240 66 +~;
#X obj 454 125 *;
#N canvas 0 0 450 300 vibrato 0;
#X floatatom -23 48 5 0 0 0 rate rate -;
#X obj 66 121 *~;
#X floatatom 44 8 5 0 0 0 depth depth -;
#X obj 91 95 +;
#X text 22 -10 vibrato;
#X obj 95 -32 ctlin 1;
#X floatatom 237 48 5 0 0 0 - - -;
#X obj 91 167 outlet~;
#X obj 56 29 t b f;
#X obj 6 101 osc~;
#X msg 30 69 0;
#X connect 0 0 9 0;
#X connect 1 0 7 0;
#X connect 2 0 8 0;
#X connect 3 0 1 1;
#X connect 5 0 6 0;
#X connect 6 0 3 0;
#X connect 8 0 3 0;
#X connect 8 1 3 1;
#X connect 9 0 1 0;
#X connect 10 0 9 1;
#X restore 166 33 pd vibrato;
#X connect 0 0 17 0;
#X connect 0 0 48 1;
#X connect 0 0 49 0;
#X connect 1 0 37 0;
#X connect 2 0 4 0;
#X connect 2 0 38 0;
#X connect 3 0 10 0;
#X connect 4 0 44 1;
#X connect 4 0 45 1;
#X connect 5 0 6 0;
#X connect 6 0 7 0;
#X connect 7 0 44 0;
#X connect 8 0 5 0;
#X connect 9 0 26 1;
#X connect 10 0 1 0;
#X connect 10 1 2 0;
#X connect 11 0 45 0;
#X connect 12 0 27 1;
#X connect 13 0 15 1;
#X connect 14 0 13 0;
#X connect 14 0 19 1;
#X connect 15 0 17 1;
#X connect 16 0 19 0;
#X connect 17 0 18 0;
#X connect 18 0 11 0;
#X connect 19 0 15 0;
#X connect 20 0 21 0;
#X connect 21 0 49 0;
#X connect 21 1 49 1;
#X connect 22 0 26 0;
#X connect 23 0 27 0;
#X connect 24 0 28 0;
#X connect 24 1 25 1;
#X connect 25 0 22 0;
#X connect 26 0 46 0;
#X connect 27 0 46 1;
#X connect 28 0 25 0;
#X connect 30 0 24 0;
#X connect 30 0 23 0;
#X connect 35 0 36 0;
#X connect 36 0 47 0;
#X connect 37 0 47 0;
#X connect 37 1 47 1;
#X connect 38 0 43 0;
#X connect 39 0 38 1;
#X connect 40 0 38 2;
#X connect 41 0 38 3;
#X connect 42 0 38 4;
#X connect 43 0 7 1;
#X connect 43 0 11 1;
#X connect 43 0 46 2;
#X connect 44 0 9 0;
#X connect 45 0 12 0;
#X connect 46 0 29 0;
#X connect 47 0 0 0;
#X connect 48 0 8 0;
#X connect 48 0 17 0;
#X connect 49 0 14 0;
#X connect 50 0 48 0;
#X restore 417 334 pd voice;
#X obj 310 249 route 1 2 3 4 5 6 7 8 9 10;
#X obj 155 174 poly 10 1;
#X obj 11 335 loadbang;
#X msg 12 364 127;
#X connect 0 0 1 0;
#X connect 1 1 3 0;
#X connect 1 2 3 1;
#X connect 2 0 3 0;
#X connect 2 1 3 1;
#X connect 3 0 26 0;
#X connect 4 0 25 0;
#X connect 5 0 15 0;
#X connect 6 0 8 0;
#X connect 7 0 6 0;
#X connect 8 0 5 0;
#X connect 9 0 10 0;
#X connect 10 0 11 0;
#X connect 11 0 12 0;
#X connect 12 0 13 0;
#X connect 13 0 14 0;
#X connect 13 0 16 0;
#X connect 13 0 17 0;
#X connect 13 0 18 0;
#X connect 13 0 19 0;
#X connect 13 0 20 0;
#X connect 13 0 21 0;
#X connect 13 0 22 0;
#X connect 13 0 23 0;
#X connect 13 0 24 0;
#X connect 14 0 5 1;
#X connect 16 0 5 1;
#X connect 17 0 5 1;
#X connect 18 0 5 1;
#X connect 19 0 5 1;
#X connect 20 0 5 1;
#X connect 21 0 5 1;
#X connect 22 0 5 1;
#X connect 23 0 5 1;
#X connect 24 0 5 1;
#X connect 25 0 14 1;
#X connect 25 1 16 1;
#X connect 25 2 17 1;
#X connect 25 3 18 1;
#X connect 25 4 19 1;
#X connect 25 5 20 1;
#X connect 25 6 21 1;
#X connect 25 7 22 1;
#X connect 25 8 23 1;
#X connect 25 9 24 1;
#X connect 26 0 4 0;
#X connect 26 1 4 1;
#X connect 26 2 4 2;
#X connect 27 0 28 0;
#X connect 28 0 6 0;
#X restore 54 29 pd synth-kris~;
#X obj 212 44 cnv 15 180 60 empty empty empty 20 12 0 14 -215104 -66577
0;
#X text 269 20 vibrato;
#X floatatom 253 68 5 0 0 0 rate 1rate rate;
#X floatatom 341 68 5 0 0 0 depth 1depth depth;
#X obj 437 46 cnv 15 250 60 empty empty empty 20 12 0 14 -259738 -66577
0;
#X floatatom 449 74 5 0 0 2 attack 1attack attack;
#X floatatom 503 74 5 0 0 2 decay 1decay decay;
#X floatatom 555 74 5 0 0 2 sustain 1sustain sustain;
#X floatatom 618 74 5 0 0 2 release 1release release;
#X text 482 21 amplitude envelope;
#X obj 27 172 cnv 15 650 200 empty empty empty 20 12 0 14 -172011 -66577
0;
#N canvas 0 0 450 300 (subpatch) 0;
#X array wavetable 67 float 1;
#A 0 -0.408225 0 0.408225 0.738302 0.938599 1 0.955323 0.863075 0.782873
0.753017 0.779229 0.838318 0.893843 0.915789 0.894993 0.846021 0.797946
0.778217 0.797945 0.846019 0.894992 0.915789 0.893844 0.838319 0.779231
0.753017 0.782872 0.863072 0.955321 1 0.938603 0.738309 0.408235 1.14122e-005
-0.408215 -0.738295 -0.938596 -1 -0.955325 -0.863078 -0.782875 -0.753017
-0.779228 -0.838316 -0.893841 -0.915789 -0.894994 -0.846022 -0.797947
-0.778217 -0.797944 -0.846018 -0.894991 -0.915789 -0.893845 -0.838321
-0.779232 -0.753017 -0.78287 -0.86307 -0.955319 -1 -0.938606 -0.738317
-0.408246 -2.28244e-005 0.408204;
#X coords 0 1 66 -1 200 140 1;
#X restore 41 205 graph;
#X obj 337 257 hsl 128 15 0 1 0 0 crossfade 1crossfade empty -2 -8
0 10 -262144 -1 -1 7290 1;
#X text 361 238 crossfade;
#X text 266 253 wave osc;
#X text 472 254 fm;
#X floatatom 574 239 5 0 0 0 index 1index fm_index;
#X floatatom 574 258 5 0 0 0 ratio 1ratio fm_ratio;
#X text 117 185 oscillation;
#X text 484 191 frequency modulation;
#X obj 35 421 cnv 15 150 75 empty empty empty 20 12 0 14 -228856 -66577
0;
#X text 87 394 wah;
#X floatatom 130 428 5 0 0 0 center_freq 1center_freq center_freq;
#X floatatom 130 451 5 0 0 0 q 1q q;
#X floatatom 130 475 5 0 0 0 amplitude 1amplitude amplitude;
#X obj 140 397 tgl 15 0 wah 1wah empty 17 7 0 10 -262144 -1 -1 0 1
;
#X obj 217 422 cnv 15 200 90 empty empty empty 20 12 0 14 -163840 -66577
0;
#X obj 371 397 tgl 15 0 reverb 1reverb empty 17 7 0 10 -262144 -1 -1
1 1;
#X text 296 395 reverb;
#X floatatom 339 427 5 0 0 0 level 1level level;
#X floatatom 339 448 5 0 0 0 liveness 1liveness liveness;
#X floatatom 339 469 5 0 0 0 crossover_freq 1crossover_freq crossover_freq
;
#X floatatom 339 491 5 0 0 0 damping 1damping damping;
#X text 386 426 dB;
#X text 386 467 Hz;
#X text 388 490 %;
#X text 387 449 %;
#X obj 55 351 hradio 15 1 0 4 table 1table empty 0 -8 0 10 -262144
-1 -1 1;
#N canvas 0 0 817 554 table 0;
#X msg 171 97 \; wavetable sinesum 100 1;
#X msg 191 157 \; wavetable sinesum 100 1 0 0.333333 0 0.2 0 0.142857
0 \; wavetable normalize;
#X msg 242 223 \; wavetable sinesum 100 1 0 -0.111111 0 0.04 0 -0.020408
0 0.0123456 \; wavetable normalize;
#X msg 306 302 \; wavetable sinesum 100 1 1 1 1 1 1 1 1 1 1 1 1 1 1
\; wavetable normalize;
#X obj 185 48 select 0 1 2 3;
#X obj 152 21 r table;
#X obj 74 49 loadbang;
#X connect 4 0 0 0;
#X connect 4 1 1 0;
#X connect 4 2 2 0;
#X connect 4 3 3 0;
#X connect 5 0 4 0;
#X connect 6 0 0 0;
#X restore 125 348 pd table;
#X obj 458 422 cnv 15 200 125 empty empty empty 20 12 0 14 -261022
-66577 0;
#N canvas 266 119 692 656 presets 0;
#X obj 46 50 loadbang;
#X msg 427 79 \; 1table 1 \; 1attack 115 \; 1decay 800 \; 1sustain
80 \; 1release 5 \; 1crossfade 0.3 \; 1index 3 \; 1ratio 2 \; 1wah
1 \; 1center_freq 0 \; 1q 10 \; 1amplitude 3 \; 1reverb 0 \; 1level
100 \; 1liveness 10 \; 1crossover_freq 0 \; 1damping 0 \; 1rate 7 \;
1depth 6 \;;
#X msg 95 78 \; 1table 0 \; 1attack 5 \; 1decay 100 \; 1sustain 80
\; 1release 5 \; 1crossfade 0 \; 1wah 0 \; 1center_freq 0 \; 1q 10
\; 1amplitude 3 \; 1reverb 0 \; 1level 100 \; 1liveness 10 \; 1crossover_freq
0 \; 1damping 0 \; 1rate 0 \; 1depth 0;
#X msg 83 413 \; 1table 2 \; 1attack 175 \; 1decay 1000 \; 1sustain
80 \; 1release 5 \; 1crossfade 0.433 \; 1index 3 \; 1ratio 4 \; 1wah
0 \; 1center_freq 0 \; 1q 10 \; 1amplitude 3 \; 1reverb 1 \; 1level
100 \; 1liveness 10 \; 1crossover_freq 3000 \; 1damping 20 \; 1rate
7 \; 1depth 0.75 \;;
#X msg 280 410 \; 1table 1 \; 1attack 1000 \; 1decay 1000 \; 1sustain
30 \; 1release 5 \; 1crossfade 0.307 \; 1index 3 \; 1ratio 4 \; 1wah
1 \; 1center_freq 0 \; 1q 10 \; 1amplitude 3 \; 1reverb 1 \; 1level
100 \; 1liveness 95 \; 1crossover_freq 1000 \; 1damping 20 \; 1rate
4 \; 1depth 0.5 \;;
#X msg 476 414 \; 1table 1 \; 1attack 100 \; 1decay 500 \; 1sustain
60 \; 1release 5 \; 1crossfade 0.574 \; 1index 5 \; 1ratio 3 \; 1wah
0 \; 1center_freq 0 \; 1q 10 \; 1amplitude 3 \; 1reverb 0 \; 1level
100 \; 1liveness 95 \; 1crossover_freq 1000 \; 1damping 20 \; 1rate
7 \; 1depth 3 \;;
#X obj 219 10 inlet;
#X floatatom 166 39 5 0 0 0 - - -;
#X obj 257 38 select 0 1 2 3 4 5;
#X msg 268 76 \; 1attack 5 \; 1decay 1000 \; 1sustain 25 \; 1release
5 \; 1crossfade 1 \; 1index 1 \; 1ratio 2 \; 1wah 0 \; 1center_freq
0 \; 1q 10 \; 1amplitude 3 \; 1reverb 0 \; 1level 100 \; 1liveness
10 \; 1crossover_freq 0 \; 1damping 0 \; 1rate 0 \; 1depth 0 \;;
#X connect 0 0 2 0;
#X connect 6 0 7 0;
#X connect 6 0 8 0;
#X connect 8 0 2 0;
#X connect 8 1 9 0;
#X connect 8 2 1 0;
#X connect 8 3 3 0;
#X connect 8 4 4 0;
#X connect 8 5 5 0;
#X restore 467 521 pd presets;
#X obj 465 429 vradio 15 1 0 6 empty empty empty 0 -8 0 10 -262144
-1 -1 5;
#X text 484 424 wavetable oscillation;
#X text 484 441 fm synth;
#X text 484 456 cheesy wah;
#X text 485 472 violin;
#X text 484 486 spacy prog;
#X text 484 500 accordion?;
#X text 511 393 presets;
#X connect 1 0 0 0;
#X connect 1 1 0 1;
#X connect 2 0 1 0;
#X connect 44 0 43 0;
